<svg xmlns="http://www.w3.org/2000/svg" viewBox="0 0 15.5 15.5"><g id="e21d58eb-b73e-4138-8bca-022a0818ecd8" data-name="Layer 2"><g id="b901fe48-50a7-4231-b94e-b7361c7d24b2" data-name="Layer 1"><g id="feebb33e-9687-4ef1-a22f-5c3f32773271" data-name="Mask Group 413"><g id="b9608c56-9350-4185-9d2f-d9aa6b50f19a" data-name="Group 1490"><g id="aa11be66-1996-456f-b284-128304f20a38" data-name="Group 1485"><g id="e898d017-1968-4ec4-aedd-9c7011e4c299" data-name="Group 1484"><path id="a9e2c8b4-f676-4033-b453-3ddebcf39a45" data-name="Path 6855" d="M7.76,15.25a7.5,7.5,0,1,1,5.3-12.8h0a7.5,7.5,0,0,1-5.3,12.8ZM7.76.72a7,7,0,1,0,5,2.06h0A7,7,0,0,0,7.76.72Z" fill="#fff" stroke="#fff" stroke-width="0.5"/></g></g><g id="babe355c-1db5-4227-803e-2be4176a00e0" data-name="Group 1487"><g id="b6f43431-d00a-413b-824e-b87fd14ed251" data-name="Group 1486"><rect id="ecc6dc35-cec2-416c-be52-de7d3e209414" data-name="Rectangle 1944" x="7.05" y="10.33" width="0.47" height="0.94" fill="#fff" stroke="#fff" stroke-width="0.5"/></g></g><g id="fcb974ba-71a9-491a-ae40-5c661e6e8d64" data-name="Group 1489"><g id="bb24e87e-a560-4068-ad96-0976bab53d32" data-name="Group 1488"><path id="b5e65c64-2377-456b-91f4-311699fa7706" data-name="Path 6856" d="M7.52,9.39H7.05V9.16A2.26,2.26,0,0,1,8.12,7.07c.35-.18,1.28-.78,1.28-1.43A1.45,1.45,0,0,0,7.76,4.23c-1.46,0-1.65.5-1.65.94H5.65c0-.93.71-1.4,2.1-1.4a1.91,1.91,0,0,1,2.1,1.71.86.86,0,0,1,0,.16c0,1.07-1.47,1.82-1.53,1.85a1.8,1.8,0,0,0-.81,1.67Z" fill="#fff" stroke="#fff" stroke-width="0.5"/></g></g></g></g></g></g></svg>