<svg xmlns="http://www.w3.org/2000/svg" viewBox="0 0 42 44.89"><g id="b508a865-55e5-4f93-bc61-f4869c2fe0e7" data-name="Layer 2"><g id="f7aacd78-bde7-4bec-9de8-4cbd1f1b2cea" data-name="Layer 1"><g id="a5a7dbb5-7096-4c93-86df-ccefb2f21f4a" data-name="Group 4015"><circle id="faac799c-4971-4492-af92-17f52f94a5ff" data-name="Ellipse 379" cx="21" cy="21" r="21" fill="#f06212" opacity="0.08" style="isolation:isolate"/><g id="ee374fdf-a5f0-4bc9-90ee-d1c9d305e25f" data-name="Page-1"><g id="fccba27f-f6b4-45c3-af1a-7dc01f484b6f" data-name=" 017---Podium"><rect id="b1275b74-aef5-4e99-a920-2d8ffee24ec3" data-name="Rectangle-path" x="5" y="34" width="32" height="10" rx="2" fill="#e8edfc"/><path id="bfe8b07c-a536-441f-8197-06e53041b14f" data-name="Shape" d="M36.11,34.18H34.22a1.27,1.27,0,0,1,1.26,1.26V43a1.26,1.26,0,0,1-1.26,1.26h1.89A1.26,1.26,0,0,0,37.37,43V35.44A1.27,1.27,0,0,0,36.11,34.18Z" fill="#cad9fc"/><path id="e5cecf39-e66e-4ed4-937c-c45d1868e93e" data-name="Shape-2" d="M26.67,25.37v8.81H15.33V25.37a1.27,1.27,0,0,1,1.26-1.26h8.82A1.27,1.27,0,0,1,26.67,25.37Z" fill="none"/><path id="bd5aa32b-a4fc-4326-b758-4d91563f998f" data-name="Shape-3" d="M25.41,24.11H23.52a1.27,1.27,0,0,1,1.26,1.26v8.81h1.89V25.37A1.27,1.27,0,0,0,25.41,24.11Z" fill="#7facfa"/><ellipse id="e0de4296-bfa9-4240-a0bf-ec5fb83f827a" data-name="Oval" cx="21" cy="29.5" rx="3" ry="2.5" fill="none"/><circle id="a0e59535-646c-4d26-aa69-47adf5b178ff" data-name="Oval-2" cx="9.5" cy="39.5" r="2.5" fill="none"/><ellipse id="b50faff7-d188-4cd3-bb4a-181e4a8d5e7d" data-name="Oval-3" cx="21" cy="39.5" rx="3" ry="2.5" fill="#e8edfc"/><path id="e0bbdf2d-c3f7-4d4b-b2d9-fc3815875109" data-name="Shape-4" d="M28.54,8.39c-.22,4.63-2.8,8.42-6.15,9.25a5.69,5.69,0,0,1-2.78,0c-3.36-.83-5.93-4.62-6.15-9.25a.63.63,0,0,1,.61-.65H27.91a.63.63,0,0,1,.63.62v0Z" fill="none"/><path id="bbda1744-0ee8-435d-838f-38d0d94e9a14" data-name="Shape-5" d="M27.91,7.74H26a.64.64,0,0,1,.64.62,0,0,0,0,1,0,0c-.22,4.63-2.8,8.42-6.15,9.26l-.44.08a5.55,5.55,0,0,0,2.33-.08c3.36-.84,5.93-4.63,6.15-9.26a.63.63,0,0,0-.61-.65Z" fill="#cad9fc"/><circle id="b416f5c5-d5e7-45cd-a27f-78c464b06e18" data-name="Oval-4" cx="32.5" cy="39.5" r="2.5" fill="none"/><path id="ac012a8d-f92a-4b9e-a6c0-cccea9aee851" data-name="Shape-6" d="M26,22.85a1.28,1.28,0,0,1-1.26,1.26H17.22a1.26,1.26,0,0,1,0-2.52h7.56A1.27,1.27,0,0,1,26,22.85Z" fill="#e8edfc"/><path id="abfb0c64-6aff-44ec-ae6f-85bd81fd2120" data-name="Shape-7" d="M24.78,21.59H22.89a1.26,1.26,0,0,1,0,2.52h1.89a1.26,1.26,0,0,0,0-2.52Z" fill="#cad9fc"/><path id="acb2e997-82b4-4492-b0de-070e66e9ee33" data-name="Shape-8" d="M23.84,21.59H18.16a3.61,3.61,0,0,0,1.45-3.95,5.69,5.69,0,0,0,2.78,0A3.61,3.61,0,0,0,23.84,21.59Z" fill="#a4c2f7"/><path id="af873301-142d-4576-8b72-4724860f2159" data-name="Shape-9" d="M15.34,25.37v8.82h1.89V25.37a1.26,1.26,0,0,1,1.26-1.26h.62a1.26,1.26,0,0,1,0-2.52h.94a3.62,3.62,0,0,0,1.45-3.95c-3.36-.83-5.93-4.62-6.15-9.26A.63.63,0,0,1,16,7.74H14.09a.63.63,0,0,0-.63.62v0c.22,4.63,2.8,8.42,6.15,9.26a3.6,3.6,0,0,1-1.45,3.94h-.94a1.26,1.26,0,0,0,0,2.52h-.63A1.27,1.27,0,0,0,15.34,25.37Z" fill="#fff"/><path id="bd5c0bf1-bb0a-4de5-aa74-3c3e1c9ce02c" data-name="Shape-10" d="M6.52,43V35.44a1.27,1.27,0,0,1,1.26-1.26H5.89a1.27,1.27,0,0,0-1.26,1.26V43a1.26,1.26,0,0,0,1.26,1.26H7.78A1.26,1.26,0,0,1,6.52,43Z" fill="#fff"/><path id="fd4db52d-0727-4dd5-9fce-88aa79c14c30" data-name="Rectangle-path-2" d="M14.7,25.37H16v5H14.7Z" fill="#fff"/><g id="ae652e29-eb12-44fd-bb5e-1343bf245c32" data-name="Group 3761"><path id="a6da4885-38a3-4d37-9b03-f495d1df9d52" data-name="Shape-11" d="M36.11,33.55H27.3V25.37a1.86,1.86,0,0,0-.88-1.59A1.88,1.88,0,0,0,24.78,21h-.7a3,3,0,0,1-1.14-2.83,8,8,0,0,0,3.95-3,3.79,3.79,0,0,0,5.92-4.74,3.82,3.82,0,0,0-3.7-1.35c0-.22.05-.43.06-.65a1.26,1.26,0,0,0-.34-.92,1.27,1.27,0,0,0-.92-.39H14.09a1.27,1.27,0,0,0-.92.39,1.26,1.26,0,0,0-.34.92c0,.22,0,.43.06.65a3.78,3.78,0,1,0,2.23,6.09,8,8,0,0,0,3.94,3A3,3,0,0,1,17.92,21h-.7a1.87,1.87,0,0,0-1.63,2.82,1.89,1.89,0,0,0-.89,1.59.63.63,0,0,0,.66.6.62.62,0,0,0,.6-.6.63.63,0,0,1,.63-.63h8.82a.63.63,0,0,1,.63.63v8.18H16V30.41a.61.61,0,0,0-.65-.6.63.63,0,0,0-.61.6v3.15H5.89A1.89,1.89,0,0,0,4,35.44V43a1.89,1.89,0,0,0,1.89,1.89H36.11A1.89,1.89,0,0,0,38,43V35.44A1.89,1.89,0,0,0,36.11,33.55Zm-6.3-23.3A2.52,2.52,0,1,1,27.62,14a12.12,12.12,0,0,0,1.3-3.58,2.49,2.49,0,0,1,.89-.19ZM12.19,15.3a2.52,2.52,0,1,1,.89-4.86A12.12,12.12,0,0,0,14.38,14a2.55,2.55,0,0,1-2.19,1.28Zm1.9-6.93H27.91c-.24,5-3.27,8.82-6.91,8.82s-6.67-3.87-6.91-8.81Zm6.27,10a4.5,4.5,0,0,0,1.27,0A4,4,0,0,0,22.37,21H19.62a3.9,3.9,0,0,0,.74-2.56Zm-3.14,5.08a.62.62,0,0,1-.6-.65.63.63,0,0,1,.6-.61h7.56a.63.63,0,0,1,0,1.26ZM36.74,43a.63.63,0,0,1-.63.63H5.89A.63.63,0,0,1,5.26,43h0V35.44a.63.63,0,0,1,.63-.63H36.11a.63.63,0,0,1,.63.63h0Z" fill="#5a6ede"/><path id="e62b04bb-6f2a-4e9a-b213-82dc01a75855" data-name="Shape-12" d="M15.35,28.52a.64.64,0,0,1-.66-.6.62.62,0,0,1,.6-.66h.06a.63.63,0,0,1,.65.6.64.64,0,0,1-.6.66Z" fill="#5a6ede"/><path id="e2176d4a-d091-46a8-9444-be7668164c6f" data-name="Shape-13" d="M24.15,29.15A3.15,3.15,0,1,0,21,32.3a3.15,3.15,0,0,0,3.15-3.15Zm-5,0A1.89,1.89,0,1,1,21,31h0a1.89,1.89,0,0,1-1.89-1.89Z" fill="#5a6ede"/><path id="e857cdb5-4e40-4c8b-9e10-0ed8eb8cc01e" data-name="Shape-14" d="M9.67,36.07a3.15,3.15,0,1,0,3.15,3.15,3.16,3.16,0,0,0-3.15-3.15Zm0,5a1.89,1.89,0,1,1,1.89-1.89h0A1.89,1.89,0,0,1,9.67,41.11Z" fill="#5a6ede"/><path id="faa17809-b6a9-429c-88dc-2bd54a1db344" data-name="Shape-15" d="M21,36.07a3.15,3.15,0,1,0,3.15,3.15A3.15,3.15,0,0,0,21,36.07Zm0,5a1.89,1.89,0,1,1,1.89-1.89h0A1.89,1.89,0,0,1,21,41.11Z" fill="#5a6ede"/><path id="a1c28762-38e1-4b02-9234-d3c95f3fd709" data-name="Shape-16" d="M32.33,36.07a3.15,3.15,0,1,0,3.15,3.15,3.16,3.16,0,0,0-3.15-3.15Zm0,5a1.89,1.89,0,1,1,1.89-1.89h0A1.88,1.88,0,0,1,32.33,41.11Z" fill="#5a6ede"/></g></g></g></g></g></g></svg>