<svg xmlns="http://www.w3.org/2000/svg" viewBox="0 0 14.83 14.83"><g id="Layer_2" data-name="Layer 2"><g id="Layer_1-2" data-name="Layer 1"><g id="Group_7346" data-name="Group 7346"><g id="Group_7341" data-name="Group 7341"><path id="Path_29774" data-name="Path 29774" d="M11.52,6.12a2.81,2.81,0,1,1,2.81-2.81A2.81,2.81,0,0,1,11.52,6.12Zm0-5.19A2.38,2.38,0,1,0,13.9,3.31,2.39,2.39,0,0,0,11.52.93Z" fill="#fff" stroke="#fff"/></g><g id="Group_7342" data-name="Group 7342"><path id="Path_29775" data-name="Path 29775" d="M2.88,12A2.38,2.38,0,1,1,5.25,9.57,2.37,2.37,0,0,1,2.88,12Zm0-4.32a1.95,1.95,0,1,0,1.94,2A1.95,1.95,0,0,0,2.88,7.63Z" fill="#fff" stroke="#fff"/></g><g id="Group_7343" data-name="Group 7343"><path id="Path_29776" data-name="Path 29776" d="M10.87,14.33a1.95,1.95,0,1,1,2-1.95A1.94,1.94,0,0,1,10.87,14.33Zm0-3.46a1.51,1.51,0,1,0,1.51,1.51A1.52,1.52,0,0,0,10.87,10.87Z" fill="#fff" stroke="#fff"/></g><g id="Group_7344" data-name="Group 7344"><rect id="Rectangle_6172" data-name="Rectangle 6172" x="6.77" y="8.98" width="0.43" height="4.65" transform="translate(-6.11 13.59) rotate(-68.2)" fill="#fff" stroke="#fff" stroke-width="1"/></g><g id="Group_7345" data-name="Group 7345"><rect id="Rectangle_6173" data-name="Rectangle 6173" x="4.16" y="6.33" width="5.64" height="0.43" transform="translate(-2.43 4.77) rotate(-32.47)" fill="#fff" stroke="#fff" stroke-width="1"/></g></g></g></g></svg>