<svg xmlns="http://www.w3.org/2000/svg" viewBox="0 0 16.3 18.11"><g id="Layer_2" data-name="Layer 2"><g id="Layer_1-2" data-name="Layer 1"><g id="Group_6425" data-name="Group 6425"><g id="Page-1"><g id="_017---Podium" data-name=" 017---Podium"><path id="Rectangle-path" d="M2.6,13h11a2,2,0,0,1,2,2h0a2,2,0,0,1-2,2H2.6a2,2,0,0,1-2-2h0A2,2,0,0,1,2.6,13Z" fill="#e8edfc"/><path id="Shape" d="M15.39,13h-.9a.6.6,0,0,1,.6.6V17.2a.6.6,0,0,1-.6.6h.9a.6.6,0,0,0,.6-.6V13.58A.6.6,0,0,0,15.39,13Z" fill="#cad9fc"/><path id="Shape-2" d="M10.87,8.75V13H5.43V8.75a.61.61,0,0,1,.6-.6h4.23A.62.62,0,0,1,10.87,8.75Z" fill="none"/><path id="Shape-3" d="M10.26,8.15h-.9a.61.61,0,0,1,.6.6V13h.9V8.75A.6.6,0,0,0,10.26,8.15Z" fill="#7facfa"/><ellipse id="Oval" cx="8.1" cy="11" rx="1.5" ry="1" fill="none"/><ellipse id="Oval-2" cx="2.6" cy="15.5" rx="1" ry="1.5" fill="none"/><circle id="Oval-3" cx="8.1" cy="15.5" r="1.5" fill="#e8edfc"/><path id="Shape-4" d="M11.77.61c-.11,2.22-1.34,4-2.95,4.44a2.76,2.76,0,0,1-1.34,0C5.87,4.65,4.64,2.83,4.53.61A.32.32,0,0,1,4.82.3h6.64a.31.31,0,0,1,.3.3h0Z" fill="none"/><path id="Shape-5" d="M11.46.3h-.9a.31.31,0,0,1,.3.3h0c-.1,2.22-1.34,4-2.94,4.44l-.22,0a2.64,2.64,0,0,0,1.12,0c1.61-.4,2.85-2.22,2.95-4.44A.3.3,0,0,0,11.47.3Z" fill="#cad9fc"/><ellipse id="Oval-4" cx="13.6" cy="15.5" rx="1" ry="1.5" fill="none"/><path id="Shape-6" d="M10.56,7.54a.6.6,0,0,1-.6.6H6.34a.6.6,0,1,1,0-1.2H10A.6.6,0,0,1,10.56,7.54Z" fill="#e8edfc"/><path id="Shape-7" d="M10,6.94h-.9a.61.61,0,0,1,0,1.21H10a.61.61,0,1,0,0-1.21Z" fill="#cad9fc"/><path id="Shape-8" d="M9.51,6.94H6.79a1.72,1.72,0,0,0,.69-1.89,2.76,2.76,0,0,0,1.34,0,1.72,1.72,0,0,0,.69,1.89Z" fill="#a4c2f7"/><path id="Shape-9" d="M5.43,8.75V13h.91V8.75a.61.61,0,0,1,.6-.6h.3a.6.6,0,1,1,0-1.2h.45a1.74,1.74,0,0,0,.69-1.9c-1.61-.4-2.84-2.21-3-4.43A.31.31,0,0,1,5.72.3H4.84a.3.3,0,0,0-.3.3h0c.1,2.22,1.34,4,3,4.44a1.71,1.71,0,0,1-.7,1.89H6.34a.61.61,0,0,0,0,1.21H6a.62.62,0,0,0-.61.6Z" fill="#fff"/><path id="Shape-10" d="M1.21,17.21V13.58a.6.6,0,0,1,.6-.6H.9a.61.61,0,0,0-.6.6V17.2a.61.61,0,0,0,.6.6h.91A.6.6,0,0,1,1.21,17.21Z" fill="#fff"/><path id="Rectangle-path-2" d="M5.13,8.75h.6v2.42h-.6Z" fill="#fff"/><g id="Group_3761" data-name="Group 3761"><path id="Shape-11" d="M15.39,12.68H11.17V8.75A.91.91,0,0,0,10.75,8a1,1,0,0,0,.12-.44A.91.91,0,0,0,10,6.64H9.63a1.43,1.43,0,0,1-.55-1.36A3.82,3.82,0,0,0,11,3.86,1.82,1.82,0,1,0,12,.94l0-.31A.62.62,0,0,0,11.9.19.6.6,0,0,0,11.46,0H4.84A.6.6,0,0,0,4.4.19a.57.57,0,0,0-.16.44c0,.1,0,.21,0,.31A1.81,1.81,0,1,0,5.33,3.86,3.82,3.82,0,0,0,7.22,5.28a1.45,1.45,0,0,1-.54,1.36H6.34a.91.91,0,0,0-.91.91h0A1,1,0,0,0,5.55,8a.89.89,0,0,0-.42.76.3.3,0,0,0,.3.3.29.29,0,0,0,.3-.3.31.31,0,0,1,.3-.3h4.23a.31.31,0,0,1,.3.3h0v3.93H5.74V11.17a.31.31,0,0,0-.31-.3.29.29,0,0,0-.29.3v1.51H.91a.9.9,0,0,0-.91.9V17.2a.91.91,0,0,0,.91.91H15.39a.91.91,0,0,0,.91-.91V13.58a.9.9,0,0,0-.91-.9Zm-3-11.17a1.21,1.21,0,0,1,0,2.41,1.19,1.19,0,0,1-1.05-.61A6.15,6.15,0,0,0,12,1.6,1,1,0,0,1,12.38,1.51ZM3.92,3.92a1.21,1.21,0,0,1,0-2.41,1,1,0,0,1,.43.09A6,6,0,0,0,5,3.31,1.19,1.19,0,0,1,3.92,3.92ZM4.84.6h6.62C11.35,3,9.9,4.83,8.15,4.83S5,3,4.84.6Zm3,4.81a2.08,2.08,0,0,0,.61,0,1.93,1.93,0,0,0,.36,1.23H7.49a1.87,1.87,0,0,0,.35-1.23ZM6.34,7.85a.3.3,0,0,1-.3-.3.29.29,0,0,1,.3-.3H10a.29.29,0,0,1,.3.3.3.3,0,0,1-.3.3Zm9.36,9.36a.3.3,0,0,1-.3.3H.91a.3.3,0,0,1-.3-.3V13.58a.3.3,0,0,1,.3-.3H15.39a.3.3,0,0,1,.3.3h0Z"/><path id="Shape-12" d="M5.44,10.26a.3.3,0,0,1-.3-.3.29.29,0,0,1,.3-.3h0a.3.3,0,0,1,.3.3A.31.31,0,0,1,5.44,10.26Z"/><path id="Shape-13" d="M9.66,10.57a1.51,1.51,0,1,0-1.51,1.5,1.51,1.51,0,0,0,1.51-1.5Zm-2.42,0a.91.91,0,1,1,.91.9.91.91,0,0,1-.91-.9Z"/><path id="Shape-14" d="M2.72,13.88a1.51,1.51,0,1,0,1.5,1.51h0A1.51,1.51,0,0,0,2.72,13.88Zm0,2.42a.91.91,0,1,1,0-1.81.9.9,0,0,1,.9.9h0A.9.9,0,0,1,2.72,16.3Z"/><path id="Shape-15" d="M8.15,13.88a1.51,1.51,0,1,0,1.51,1.51h0A1.52,1.52,0,0,0,8.15,13.88Zm0,2.42a.91.91,0,1,1,.91-.91h0A.91.91,0,0,1,8.15,16.3Z"/><path id="Shape-16" d="M13.58,13.88a1.51,1.51,0,1,0,1.51,1.51h0A1.51,1.51,0,0,0,13.58,13.88Zm0,2.42a.91.91,0,1,1,.91-.91h0A.91.91,0,0,1,13.58,16.3Z"/></g></g></g></g></g></g></svg>