<svg xmlns="http://www.w3.org/2000/svg" viewBox="0 0 20 14"><g id="b5e6fed1-de8c-4935-8a5d-f5a3b4e33c3c" data-name="Layer 2"><g id="b6cb942f-f4df-430d-8367-5f5b56b9036b" data-name="Layer 1"><g id="adc8de68-a6f0-45a7-b8f2-f4316a034b60" data-name=" 1"><path id="fb258f22-6197-49d4-a20a-8cc79227ceff" data-name="Rectangle 467" d="M1,0H11a1,1,0,0,1,1,1h0a1,1,0,0,1-1,1H1A1,1,0,0,1,0,1H0A1,1,0,0,1,1,0Z" fill="#686868"/><path id="b3f1c5ab-ec95-4abd-a138-17446f0474f2" data-name="Rectangle 468" d="M1,6H19a1,1,0,0,1,1,1h0a1,1,0,0,1-1,1H1A1,1,0,0,1,0,7H0A1,1,0,0,1,1,6Z" fill="#686868"/><path id="baa72c1d-d65b-4eec-b3c7-c9dee82ff4e7" data-name="Rectangle 469" d="M1,12H19a1,1,0,0,1,1,1h0a1,1,0,0,1-1,1H1a1,1,0,0,1-1-1H0A1,1,0,0,1,1,12Z" fill="#686868"/></g></g></g></svg>