<svg xmlns="http://www.w3.org/2000/svg" viewBox="0 0 17.23 21.07"><g id="e1d27367-bf6c-408e-8898-96142c98d8c7" data-name="Layer 2"><g id="eca1d742-0d3a-42d7-a159-b3486cd1e14b" data-name="Layer 1"><g id="bc43ce20-4ced-4cca-92ff-bb392a1c6aad" data-name="menu notifications inactive-2"><g id="fd60f828-530b-4a3f-b01e-c4c0e3d346df" data-name="Group 1520"><g id="ef98fb8a-96d6-4409-b4d6-b3179f6892ae" data-name="Group 1517"><path id="a73251a0-79bd-4292-8597-7f19a473ae9f" data-name="Path 6879" d="M16.93,18.21H.3V16.48l2.24-2.24v-6a6.08,6.08,0,1,1,12.15,0v6l2.24,2.24Zm-16-.64H16.29v-.83L14.05,14.5V8.29A5.44,5.44,0,0,0,3.18,8.15V14.5L.94,16.74Z" fill="#666" stroke="#666" stroke-width="0.6"/></g><g id="f8263152-296f-47ba-b8ab-783845ad1ddf" data-name="Group 1518"><path id="f15a78f5-395e-4b17-937d-a24796646aa8" data-name="Path 6880" d="M8.29,20.77a2.88,2.88,0,0,1-2.87-2.88h.64a2.24,2.24,0,1,0,4.47,0h.64A2.88,2.88,0,0,1,8.29,20.77Z" fill="#666" stroke="#666" stroke-width="0.6"/></g><g id="b683ed65-5e42-4e0f-a394-67e0da8233a7" data-name="Group 1519"><path id="a709f2f2-baaf-4c5c-bdf0-cbc620dfa8b7" data-name="Path 6881" d="M10.21,2.54H9.57V.94H7.65v1.6H7V.3h3.2Z" fill="#666" stroke="#666" stroke-width="0.6"/></g></g></g></g></g></svg>